<mxfile host="app.diagrams.net" modified="2023-06-04T03:08:47.507Z" agent="Mozilla/5.0 (Windows NT 10.0; Win64; x64) AppleWebKit/537.36 (KHTML, like Gecko) Chrome/113.0.0.0 Safari/537.36 Edg/113.0.1774.57" version="21.3.0" etag="HjmsFK91e0HPuoB-e_-k" type="github">
  <diagram name="第 1 页" id="p6CmcOCk6DpC-1O84sdP">
    <mxGraphModel>
      <root>
        <mxCell id="0" />
        <mxCell id="1" parent="0" />
      </root>
    </mxGraphModel>
  </diagram>
</mxfile>
